HIERARCHY
ROOT Hips
{
	OFFSET 51.845402 -3.711065 91.598099
	CHANNELS 6 Xposition Yposition Zposition Xrotation Yrotation Zrotation
	JOINT spine
	{
		OFFSET 0.000000 -0.393701 6.846367
		CHANNELS 3 Xrotation Yrotation Zrotation
		JOINT spine1
		{
			OFFSET 0.000000 -0.000001 9.496208
			CHANNELS 3 Xrotation Yrotation Zrotation
			JOINT spine2
			{
				OFFSET 0.000000 -0.000001 9.099091
				CHANNELS 3 Xrotation Yrotation Zrotation
				JOINT Neck
				{
					OFFSET 0.000000 -1.113784 23.361206
					CHANNELS 3 Xrotation Yrotation Zrotation
					JOINT Head
					{
						OFFSET 0.000000 -0.000001 7.058014
						CHANNELS 3 Xrotation Yrotation Zrotation
						End Site
						{
							OFFSET 0.000000 5.634187 17.084396
						}
					}
				}
				JOINT RightShoulder
				{
					OFFSET -3.831360 0.533489 9.826309
					CHANNELS 3 Xrotation Yrotation Zrotation
					JOINT RightArm
					{
						OFFSET 0.000000 -0.000002 12.888107
						CHANNELS 3 Xrotation Yrotation Zrotation
						JOINT RightArmRoll
						{
							OFFSET 0.000000 -0.000001 6.506165
							CHANNELS 3 Xrotation Yrotation Zrotation
							JOINT RightForeArm
							{
								OFFSET 0.000000 -0.000003 18.950104
								CHANNELS 3 Xrotation Yrotation Zrotation
								JOINT RightForeArmRoll
								{
									OFFSET 0.000000 -0.000001 7.300919
									CHANNELS 3 Xrotation Yrotation Zrotation
									JOINT RightHand
									{
										OFFSET 0.000000 -0.000002 14.651398
										CHANNELS 3 Xrotation Yrotation Zrotation
										End Site
										{
											OFFSET 0.000000 0.000000 0.100006
										}
									}
								}
							}
						}
					}
				}
				JOINT LeftShoulder
				{
					OFFSET 3.831360 0.533489 9.826309
					CHANNELS 3 Xrotation Yrotation Zrotation
					JOINT LeftArm
					{
						OFFSET 0.000000 -0.000002 12.888107
						CHANNELS 3 Xrotation Yrotation Zrotation
						JOINT LeftArmRoll
						{
							OFFSET 0.000000 -0.000001 6.506165
							CHANNELS 3 Xrotation Yrotation Zrotation
							JOINT LeftForeArm
							{
								OFFSET 0.000000 -0.000003 18.950104
								CHANNELS 3 Xrotation Yrotation Zrotation
								JOINT LeftForeArmRoll
								{
									OFFSET 0.000000 -0.000001 7.300934
									CHANNELS 3 Xrotation Yrotation Zrotation
									JOINT LeftHand
									{
										OFFSET 0.000000 -0.000002 14.651398
										CHANNELS 3 Xrotation Yrotation Zrotation
										End Site
										{
											OFFSET 0.000000 0.000000 0.100006
										}
									}
								}
							}
						}
					}
				}
			}
		}
	}
	JOINT RightUpLeg
	{
		OFFSET -6.068371 0.933477 -1.112778
		CHANNELS 3 Xrotation Yrotation Zrotation
		JOINT RightUpLegRoll
		{
			OFFSET 0.000000 -0.000003 17.179596
			CHANNELS 3 Xrotation Yrotation Zrotation
			JOINT RightLeg
			{
				OFFSET 0.000000 0.000004 -21.274300
				CHANNELS 3 Xrotation Yrotation Zrotation
				JOINT RightLegRoll
				{
					OFFSET 0.000000 -0.000004 21.343903
					CHANNELS 3 Xrotation Yrotation Zrotation
					JOINT RightFoot
					{
						OFFSET 0.000000 -0.000003 17.765198
						CHANNELS 3 Xrotation Yrotation Zrotation
						JOINT RightToeBase
						{
							OFFSET 0.000000 -0.000002 14.850807
							CHANNELS 3 Xrotation Yrotation Zrotation
							End Site
							{
								OFFSET 0.006294 0.829004 7.192139
							}
						}
					}
				}
			}
		}
	}
	JOINT LeftUpLeg
	{
		OFFSET 6.068371 0.933477 -1.112778
		CHANNELS 3 Xrotation Yrotation Zrotation
		JOINT LeftUpLegRoll
		{
			OFFSET 0.000000 -0.000003 17.179703
			CHANNELS 3 Xrotation Yrotation Zrotation
			JOINT LeftLeg
			{
				OFFSET 0.000000 -0.000003 21.274200
				CHANNELS 3 Xrotation Yrotation Zrotation
				JOINT LeftLegRoll
				{
					OFFSET 0.000000 -0.000004 21.541199
					CHANNELS 3 Xrotation Yrotation Zrotation
					JOINT LeftFoot
					{
						OFFSET 0.000000 -0.000003 17.567902
						CHANNELS 3 Xrotation Yrotation Zrotation
						JOINT LeftToeBase
						{
							OFFSET 0.000000 -0.000002 14.850800
							CHANNELS 3 Xrotation Yrotation Zrotation
							End Site
							{
								OFFSET -0.028210 0.829004 7.192123
							}
						}
					}
				}
			}
		}
	}
}
MOTION
Frames: 6
Frame Time: 0.041667
53.568798 -3.724556 91.483795 4.821737 4.528394 3.793504 -4.000871 1.814670 0.557540 -4.020364 3.578974 1.218495 -2.374090 3.593343 1.179091 29.282910 -12.613023 -0.055802 1.224946 1.527831 -1.003280 -19.503578 -9.136757 -23.560548 -123.313997 -205.943481 -72.978768 0.000002 -0.000004 0.000004 34.350527 5.778045 -0.628518 0.000012 0.000006 -2.999990 -5.000220 -7.999033 0.000112 -4.128600 76.798633 6.448262 -102.108862 102.254229 74.596082 0.000000 0.000004 0.000005 0.771827 9.652301 0.173787 -0.000002 -0.000002 3.003092 -5.000220 7.998752 -0.000173 -7.092500 -180.914963 -2.873614 179.999991 -0.000005 -0.893001 175.512298 -1.102604 -0.176536 0.000003 -0.000001 0.040892 69.055869 6.900838 2.110210 25.456953 -7.355614 -0.000001 -8.566201 168.616019 -1.946775 -0.000005 -0.000003 -0.916884 -7.371280 1.841892 0.317164 -0.000002 0.000002 -0.124653 70.173241 -6.855291 -2.137678 25.456959 7.355613 0.000001 
53.561901 -3.720455 91.483101 4.800446 4.524468 3.813505 -3.998216 1.813638 0.558381 -4.015090 3.578120 1.220290 -2.368829 3.592525 1.181576 29.273812 -12.403882 -0.052085 1.232864 1.388389 -0.971070 -19.450265 -9.092788 -23.469471 -123.144759 -206.053598 -73.070764 0.000001 -0.000001 0.000003 34.438582 5.718247 -0.622402 0.000009 0.000007 -2.999993 -5.000224 -7.999033 0.000112 -4.301245 76.902582 6.641677 -102.463329 102.251736 75.019034 0.000000 0.000003 0.000008 0.901511 9.727878 0.164903 -0.000001 -0.000002 3.002631 -5.000218 7.998752 -0.000174 -7.071451 -180.913024 -2.872697 179.999991 -0.000005 -0.893998 175.509989 -1.099618 -0.176346 0.000003 -0.000001 0.040878 69.054483 6.900802 2.110188 25.456959 -7.355614 -0.000001 -8.548654 168.618478 -1.948516 -0.000005 -0.000003 -0.917341 -7.365905 1.841240 0.316430 -0.000002 0.000002 -0.124267 70.171547 -6.855320 -2.137788 25.456962 7.355614 -0.000000 
53.586098 -3.723636 91.485802 4.779322 4.520622 3.833604 -3.995521 1.812497 0.559202 -4.009725 3.577116 1.222055 -2.363465 3.591551 1.184020 29.261746 -12.197986 -0.048514 1.242615 1.253326 -0.939316 -19.398617 -9.052752 -23.380943 -122.975288 -206.165654 -73.165847 0.000002 -0.000003 0.000004 34.522365 5.658987 -0.616567 0.000005 0.000008 -2.999992 -5.000229 -7.999032 0.000109 -4.472209 77.005171 6.832979 -102.810514 102.249141 75.434283 -0.000000 0.000003 0.000003 1.032091 9.802939 0.155830 -0.000000 -0.000003 3.002209 -5.000219 7.998752 -0.000176 -7.050614 -180.911070 -2.871724 179.999991 -0.000005 -0.893999 175.507612 -1.095624 -0.176079 0.000003 -0.000001 0.040864 69.053192 6.900730 2.110254 25.456957 -7.355614 -0.000001 -8.531464 168.620951 -1.950143 -0.000005 -0.000003 -0.917773 -7.360798 1.840537 0.315708 -0.000002 0.000001 -0.123900 70.169989 -6.855383 -2.137797 25.456959 7.355614 0.000001 
53.583405 -3.726577 91.486504 4.758461 4.516743 3.853721 -3.992789 1.811325 0.560010 -4.004290 3.576011 1.223787 -2.358031 3.590477 1.186395 29.246686 -11.996196 -0.045059 1.254482 1.123512 -0.908212 -19.348478 -9.015698 -23.294992 -122.805859 -206.278379 -73.262542 0.000003 0.000000 0.000004 34.602182 5.600404 -0.610969 0.000007 0.000006 -2.999989 -5.000219 -7.999033 0.000112 -4.642390 77.105705 7.023081 -103.148014 102.246504 75.838295 -0.000001 0.000003 0.000006 1.161386 9.876462 0.146690 -0.000001 -0.000002 3.001822 -5.000221 7.998753 -0.000177 -7.030120 -180.909131 -2.870583 179.999991 -0.000005 -0.893997 175.505194 -1.092625 -0.176888 0.000003 -0.000001 0.040852 69.051799 6.900655 2.110429 25.456959 -7.355616 -0.000001 -8.514562 168.623423 -1.951594 -0.000005 -0.000004 -0.918182 -7.355742 1.839794 0.315002 -0.000002 0.000001 -0.123550 70.168514 -6.855416 -2.137893 25.456960 7.355613 -0.000001 
53.563499 -3.723889 91.488693 4.737965 4.512750 3.873787 -3.990036 1.810154 0.560803 -3.998824 3.574869 1.225485 -2.352558 3.589361 1.188685 29.228193 -11.799246 -0.041856 1.268745 0.999785 -0.877949 -19.299784 -8.980663 -23.211469 -122.636579 -206.390749 -73.360712 0.000000 0.000002 0.000004 34.678445 5.542688 -0.605617 0.000008 0.000006 -2.999989 -5.000220 -7.999035 0.000110 -4.812789 77.203657 7.213044 -103.474204 102.243909 76.228517 -0.000001 0.000003 0.000006 1.287196 9.947389 0.137623 -0.000001 -0.000002 3.001462 -5.000218 7.998752 -0.000176 -7.010104 -180.907177 -2.869196 179.999991 -0.000005 -0.893998 175.502667 -1.088644 -0.176623 0.000003 -0.000001 0.040838 69.050412 6.900614 2.110406 25.456957 -7.355613 -0.000001 -8.497856 168.626907 -1.952950 -0.000005 -0.000004 -0.918571 -7.350527 1.839042 0.314306 -0.000001 0.000001 -0.123213 70.166848 -6.855512 -2.137812 25.456959 7.355613 0.000000 
53.584999 -3.717956 91.489700 4.717922 4.508525 3.893722 -3.987281 1.809034 0.561584 -3.993338 3.573745 1.227144 -2.347075 3.588257 1.190876 29.206094 -11.607661 -0.039062 1.285651 0.883008 -0.848723 -19.252490 -8.946693 -23.130125 -122.467887 -206.501685 -73.458903 0.000002 0.000003 0.000002 34.751675 5.485976 -0.600501 0.000009 0.000005 -2.999990 -5.000226 -7.999030 0.000111 -4.984389 77.298323 7.403858 -103.786978 102.241518 76.601821 -0.000000 0.000002 0.000005 1.407329 10.014639 0.128777 -0.000002 -0.000003 3.001119 -5.000219 7.998753 -0.000177 -6.990685 -180.904254 -2.867578 179.999991 -0.000005 -0.893999 175.500030 -1.085644 -0.176437 0.000003 -0.000001 0.040825 69.049026 6.900573 2.110486 25.456959 -7.355613 0.000000 -8.481281 168.630404 -1.954016 -0.000005 -0.000004 -0.918945 -7.344941 1.838302 0.313620 -0.000002 0.000001 -0.122884 70.165051 -6.855537 -2.137928 25.456959 7.355613 0.000001 
